<?xml version="1.0" ?><svg data-name="Layer 2" id="Layer_2" viewBox="0 0 2010 2010" xmlns="http://www.w3.org/2000/svg" xmlns:xlink="http://www.w3.org/1999/xlink"><defs><style>.cls-1{fill:url(#linear-gradient);}</style><linearGradient gradientUnits="userSpaceOnUse" id="linear-gradient" x1="501.44" x2="1653.65" y1="1962.29" y2="-229.59"><stop offset="0.06" stop-color="#ff6800"/><stop offset="1" stop-color="#fff100"/></linearGradient></defs><path class="cls-1" d="M1047,1810.55a115.46,115.46,0,0,1-84.88-37.09,114.19,114.19,0,0,1-29.62-73.37l-15.17-449.17H595A114.31,114.31,0,0,1,490.66,1090L858.19,267.16a114.31,114.31,0,0,1,218.65,44.1l9.75,443,330.54,6.26a114.31,114.31,0,0,1,102.15,161L1151.06,1743a112.91,112.91,0,0,1-104,67.57ZM926.67,297.74h0Z"/></svg>